# 3ds Max Wavefront OBJ Exporter v0.99 - (c)2007 guruware
# File Created: 16.03.2024 08:00:05

mtllib goddard_pru.mtl

#
# object cuerpo
#

v  -0.3031 0.6411 -1.2137
v  1.1310 1.2504 0.0217
v  1.1310 1.2504 -1.2137
v  2.5651 1.8597 -1.2137
v  1.1310 1.2504 -2.4491
v  -0.0066 -0.0666 0.0217
v  1.4275 0.5427 0.0217
v  1.7240 -0.1649 0.0217
v  2.8616 1.1521 0.0217
v  -0.0066 -0.0666 -2.4491
v  -0.0066 -0.0666 -1.2137
v  0.2899 -0.7742 -1.2137
v  3.1581 0.4445 -1.2137
v  1.7240 -0.1649 -1.2137
v  1.7240 -0.1649 -2.4491
v  2.8616 1.1521 -1.2137
v  2.8616 1.1521 -2.4491
v  1.4275 0.5428 -2.4491
v  2.5651 1.8597 0.0217
v  -0.3031 0.6411 0.0217
v  -0.3031 0.6411 -2.4491
v  2.5651 1.8597 -2.4491
v  0.2899 -0.7742 0.0217
v  3.1581 0.4445 0.0217
v  0.2899 -0.7742 -2.4491
v  3.1581 0.4445 -2.4491
# 26 vertices

vn -0.3910 0.9204 -0.0000
vn 0.0000 0.0000 1.0000
vn -0.9223 -0.3864 -0.0000
vn 0.3911 -0.9204 -0.0000
vn 0.9223 0.3865 -0.0000
vn 0.0000 0.0000 -1.0000
# 6 vertex normals

vt 0.8750 0.6250 0.0000
vt 0.7500 0.7500 0.0000
vt 0.7500 0.6250 0.0000
vt 0.6250 0.6250 0.0000
vt 0.7500 0.5000 0.0000
vt 0.6250 0.8750 0.0000
vt 0.5000 1.0000 0.0000
vt 0.5000 0.8750 0.0000
vt 0.3750 0.8750 0.0000
vt 0.5000 0.7500 0.0000
vt 0.6250 0.1250 0.0000
vt 0.5000 0.2500 0.0000
vt 0.5000 0.1250 0.0000
vt 0.3750 0.1250 0.0000
vt 0.5000 0.0000 0.0000
vt 0.3750 0.6250 0.0000
vt 0.2500 0.7500 0.0000
vt 0.2500 0.6250 0.0000
vt 0.1250 0.6250 0.0000
vt 0.2500 0.5000 0.0000
vt 0.5000 0.6250 0.0000
vt 0.5000 0.5000 0.0000
vt 0.6250 0.3750 0.0000
vt 0.5000 0.3750 0.0000
vt 0.3750 0.3750 0.0000
vt 0.6250 0.7500 0.0000
vt 0.8750 0.7500 0.0000
vt 0.8750 0.5000 0.0000
vt 0.6250 0.5000 0.0000
vt 0.3750 1.0000 0.0000
vt 0.6250 1.0000 0.0000
vt 0.3750 0.7500 0.0000
vt 0.3750 0.2500 0.0000
vt 0.6250 0.2500 0.0000
vt 0.6250 0.0000 0.0000
vt 0.3750 0.0000 0.0000
vt 0.1250 0.7500 0.0000
vt 0.3750 0.5000 0.0000
vt 0.1250 0.5000 0.0000
# 39 texture coords

o cuerpo
g cuerpo
usemtl goddard_base_Goddard_Material
s off
f 1/1/1 2/2/1 3/3/1 
f 4/4/1 5/5/1 3/3/1 
f 2/6/2 6/7/2 7/8/2 
f 8/9/2 9/10/2 7/8/2 
f 1/11/3 10/12/3 11/13/3 
f 12/14/3 6/15/3 11/13/3 
f 13/16/4 8/17/4 14/18/4 
f 12/19/4 15/20/4 14/18/4 
f 4/4/5 9/10/5 16/21/5 
f 13/16/5 17/22/5 16/21/5 
f 5/23/6 17/22/6 18/24/6 
f 15/25/6 10/12/6 18/24/6 
f 2/2/1 19/26/1 3/3/1 
f 1/1/1 20/27/1 2/2/1 
f 3/3/1 21/28/1 1/1/1 
f 5/5/1 21/28/1 3/3/1 
f 4/4/1 22/29/1 5/5/1 
f 3/3/1 19/26/1 4/4/1 
f 6/7/2 23/30/2 7/8/2 
f 2/6/2 20/31/2 6/7/2 
f 7/8/2 19/26/2 2/6/2 
f 9/10/2 19/26/2 7/8/2 
f 8/9/2 24/32/2 9/10/2 
f 7/8/2 23/30/2 8/9/2 
f 10/12/3 25/33/3 11/13/3 
f 1/11/3 21/34/3 10/12/3 
f 11/13/3 20/35/3 1/11/3 
f 6/15/3 20/35/3 11/13/3 
f 12/14/3 23/36/3 6/15/3 
f 11/13/3 25/33/3 12/14/3 
f 8/17/4 23/37/4 14/18/4 
f 13/16/4 24/32/4 8/17/4 
f 14/18/4 26/38/4 13/16/4 
f 15/20/4 26/38/4 14/18/4 
f 12/19/4 25/39/4 15/20/4 
f 14/18/4 23/37/4 12/19/4 
f 9/10/5 24/32/5 16/21/5 
f 4/4/5 19/26/5 9/10/5 
f 16/21/5 22/29/5 4/4/5 
f 17/22/5 22/29/5 16/21/5 
f 13/16/5 26/38/5 17/22/5 
f 16/21/5 24/32/5 13/16/5 
f 17/22/6 26/38/6 18/24/6 
f 5/23/6 22/29/6 17/22/6 
f 18/24/6 21/34/6 5/23/6 
f 10/12/6 21/34/6 18/24/6 
f 15/25/6 25/33/6 10/12/6 
f 18/24/6 26/38/6 15/25/6 
# 48 faces

#
# object cuerpo001
#

v  -0.2067 0.4187 -1.2507
v  -0.2572 0.5280 -1.1367
v  -0.2489 0.5187 -1.2436
v  -0.2911 0.6187 -1.2365
v  -0.2406 0.5094 -1.3504
v  -0.9040 0.5523 -1.1659
v  -0.7492 0.4846 -1.1120
v  -0.7460 0.4811 -1.1538
v  -0.5829 0.4041 -1.2068
v  -0.7377 0.4718 -1.2607
v  -0.4031 0.4207 -1.1219
v  -0.3948 0.4114 -1.2287
v  -0.3865 0.4021 -1.3356
v  -0.5780 0.5936 -1.2033
v  -0.4263 0.5969 -1.3268
v  -0.4345 0.6062 -1.2199
v  -0.4428 0.6154 -1.1131
v  -0.5887 0.5082 -1.0982
v  -0.4453 0.5207 -1.1148
v  -0.5722 0.4896 -1.3119
v  -0.3841 0.4969 -1.3338
v  -0.9906 0.6740 -1.1290
v  -0.9062 0.5930 -1.1233
v  -0.9915 0.6369 -1.1297
v  -0.9940 0.6318 -1.1295
v  -1.0784 0.7129 -1.1352
v  -0.9020 0.6265 -1.1645
v  -0.7343 0.6037 -1.2582
v  -0.7375 0.6073 -1.2164
v  -0.7457 0.6165 -1.1096
v  -0.7467 0.5794 -1.1103
v  -0.7353 0.5665 -1.2589
v  -0.8998 0.5858 -1.2070
v  -1.0804 0.7072 -1.1418
v  -1.0779 0.7123 -1.1420
v  -1.0774 0.7117 -1.1488
v  -1.0753 0.7173 -1.1422
v  -0.9868 0.6698 -1.1776
v  -0.9894 0.6648 -1.1775
v  -0.9904 0.6277 -1.1781
v  -0.9909 0.6283 -1.1714
v  -0.9900 0.6734 -1.1358
v  -0.2993 0.6279 -1.1296
v  -0.2150 0.4280 -1.1438
v  -0.1984 0.4094 -1.3575
v  -0.2829 0.6094 -1.3434
v  -0.5912 0.4134 -1.0999
v  -0.9071 0.5559 -1.1240
v  -0.9008 0.5487 -1.2077
v  -0.5746 0.3948 -1.3137
v  -0.5697 0.5844 -1.3102
v  -0.5862 0.6029 -1.0965
v  -0.9053 0.6302 -1.1226
v  -1.0759 0.7179 -1.1354
v  -1.0809 0.7078 -1.1350
v  -0.8988 0.6229 -1.2063
v  -1.0799 0.7066 -1.1486
v  -1.0748 0.7167 -1.1489
# 58 vertices

vn -0.9217 -0.3860 -0.0381
vn -0.9215 -0.3865 -0.0375
vn 0.4136 0.9093 -0.0465
vn 0.4137 0.9092 -0.0469
vn -0.0492 0.9947 -0.0904
vn 0.0973 -0.9909 0.0934
vn 0.0971 -0.9909 0.0932
vn -0.1164 0.0210 -0.9930
vn -0.1166 0.0213 -0.9930
vn 0.1166 -0.0213 0.9929
vn 0.1168 -0.0209 0.9929
vn 0.0839 0.0173 -0.9963
vn 0.0197 -0.0498 -0.9986
vn -0.0914 -0.9927 0.0789
vn -0.0913 -0.9927 0.0790
vn 0.0832 0.0158 -0.9964
vn 0.0829 0.0173 -0.9964
vn 0.2981 -0.0253 0.9542
vn 0.2981 -0.0255 0.9542
vn 0.8905 -0.4432 0.1031
vn 0.8871 -0.4485 0.1087
vn 0.2579 -0.1037 0.9606
vn 0.2926 -0.0254 0.9559
vn 0.6586 0.7524 -0.0145
vn 0.6580 0.7529 -0.0171
vn -0.4594 -0.8873 0.0413
vn -0.4596 -0.8870 0.0439
vn 0.8872 -0.4485 0.1086
vn 0.8872 -0.4485 0.1087
vn 0.6580 0.7529 -0.0172
vn -0.4592 -0.8874 0.0416
# 31 vertex normals

vt 1.0000 0.5000 0.0000
vt 0.5000 1.0000 0.0000
vt 0.5000 0.5000 0.0000
vt 0.0000 0.5000 0.0000
vt 0.5000 0.0000 0.0000
vt 1.0000 1.0000 0.0000
vt 1.0000 0.0000 0.0000
vt 0.0000 0.0000 0.0000
vt 0.0000 1.0000 0.0000
# 9 texture coords

o cuerpo001
g cuerpo001
usemtl goddard_base_Goddard_None
s off
f 27/40/7 28/41/7 29/42/7 
f 30/43/8 31/44/8 29/42/8 
f 32/40/9 33/45/9 34/40/9 
f 35/40/10 36/46/10 34/40/10 
f 35/40/11 37/45/11 38/40/11 
f 27/40/11 39/46/11 38/40/11 
f 40/43/12 41/47/12 42/43/12 
f 30/43/13 43/48/13 42/43/13 
f 44/41/14 43/48/14 45/41/14 
f 28/41/15 37/45/15 45/41/15 
f 46/44/16 39/46/16 47/44/16 
f 31/44/17 41/47/17 47/44/17 
f 48/48/18 49/41/18 50/41/18 
f 51/45/19 52/41/19 50/41/19 
f 53/43/20 54/47/20 55/43/20 
f 40/43/21 56/48/21 55/43/21 
f 44/41/22 33/45/22 57/41/22 
f 49/41/23 56/48/23 57/41/23 
f 36/46/24 46/44/24 58/44/24 
f 54/47/25 59/44/25 58/44/25 
f 52/41/26 60/40/26 61/42/26 
f 62/44/27 63/43/27 61/42/27 
f 64/47/28 62/44/28 65/44/28 
f 66/46/29 59/44/29 65/44/29 
f 51/45/30 32/40/30 67/40/30 
f 66/46/31 60/40/31 67/40/31 
f 64/47/32 53/43/32 68/43/32 
f 48/48/33 63/43/33 68/43/33 
f 28/41/7 69/48/7 29/42/7 
f 27/40/7 70/45/7 28/41/7 
f 29/42/7 71/46/7 27/40/7 
f 31/44/8 71/46/8 29/42/8 
f 30/43/8 72/47/8 31/44/8 
f 29/42/8 69/48/8 30/43/8 
f 33/45/9 73/45/9 34/40/9 
f 32/40/9 74/45/9 33/45/9 
f 34/40/9 75/46/9 32/40/9 
f 36/46/10 75/46/10 34/40/10 
f 35/40/10 76/46/10 36/46/10 
f 34/40/10 73/45/10 35/40/10 
f 37/45/11 70/45/11 38/40/11 
f 35/40/11 73/45/11 37/45/11 
f 38/40/11 76/46/11 35/40/11 
f 39/46/11 76/46/11 38/40/11 
f 27/40/11 71/46/11 39/46/11 
f 38/40/11 70/45/11 27/40/11 
f 41/47/12 72/47/12 42/43/12 
f 40/43/12 77/47/12 41/47/12 
f 42/43/12 78/48/12 40/43/12 
f 43/48/13 78/48/13 42/43/13 
f 30/43/13 69/48/13 43/48/13 
f 42/43/13 72/47/13 30/43/13 
f 43/48/14 69/48/14 45/41/14 
f 44/41/14 78/48/14 43/48/14 
f 45/41/14 73/45/14 44/41/14 
f 37/45/15 73/45/15 45/41/15 
f 28/41/15 70/45/15 37/45/15 
f 45/41/15 69/48/15 28/41/15 
f 39/46/16 71/46/16 47/44/16 
f 46/44/16 76/46/16 39/46/16 
f 47/44/16 77/47/16 46/44/16 
f 41/47/17 77/47/17 47/44/17 
f 31/44/17 72/47/17 41/47/17 
f 47/44/17 71/46/17 31/44/17 
f 49/41/18 74/45/18 50/41/18 
f 48/48/18 79/48/18 49/41/18 
f 50/41/18 80/48/18 48/48/18 
f 52/41/19 80/48/19 50/41/19 
f 51/45/19 81/45/19 52/41/19 
f 50/41/19 74/45/19 51/45/19 
f 54/47/20 77/47/20 55/43/20 
f 53/43/20 82/47/20 54/47/20 
f 55/43/20 79/48/20 53/43/20 
f 56/48/21 79/48/21 55/43/21 
f 40/43/21 78/48/21 56/48/21 
f 55/43/21 77/47/21 40/43/21 
f 33/45/22 74/45/22 57/41/22 
f 44/41/22 73/45/22 33/45/22 
f 57/41/22 78/48/22 44/41/22 
f 56/48/23 78/48/23 57/41/23 
f 49/41/23 79/48/23 56/48/23 
f 57/41/23 74/45/23 49/41/23 
f 46/44/24 77/47/24 58/44/24 
f 36/46/24 76/46/24 46/44/24 
f 58/44/24 75/46/24 36/46/24 
f 59/44/25 75/46/25 58/44/25 
f 54/47/25 82/47/25 59/44/25 
f 58/44/25 77/47/25 54/47/25 
f 60/40/26 83/46/26 61/42/26 
f 52/41/26 81/45/26 60/40/26 
f 61/42/26 80/48/26 52/41/26 
f 63/43/27 80/48/27 61/42/27 
f 62/44/34 84/47/34 63/43/34 
f 61/42/35 83/46/35 62/44/35 
f 62/44/28 83/46/28 65/44/28 
f 64/47/28 84/47/28 62/44/28 
f 65/44/28 82/47/28 64/47/28 
f 59/44/29 82/47/29 65/44/29 
f 66/46/29 75/46/29 59/44/29 
f 65/44/29 83/46/29 66/46/29 
f 32/40/30 75/46/30 67/40/30 
f 51/45/30 74/45/30 32/40/30 
f 67/40/30 81/45/30 51/45/30 
f 60/40/36 81/45/36 67/40/36 
f 66/46/36 83/46/36 60/40/36 
f 67/40/31 75/46/31 66/46/31 
f 53/43/32 79/48/32 68/43/32 
f 64/47/32 82/47/32 53/43/32 
f 68/43/32 84/47/32 64/47/32 
f 63/43/33 84/47/37 68/43/33 
f 48/48/33 80/48/37 63/43/33 
f 68/43/33 79/48/37 48/48/33 
# 112 faces

